<?xml version="1.0" standalone="no"?>
<!DOCTYPE svg PUBLIC "-//W3C//DTD SVG 20010904//EN"
 "http://www.w3.org/TR/2001/REC-SVG-20010904/DTD/svg10.dtd">
<svg version="1.0" xmlns="http://www.w3.org/2000/svg"
 width="1024.000000pt" height="1024.000000pt" viewBox="0 0 1024.000000 1024.000000"
 preserveAspectRatio="xMidYMid meet">

<g transform="translate(0.000000,1024.000000) scale(0.100000,-0.100000)"
fill="#000000" stroke="none">
<path d="M7168 8523 c23 -2 61 -2 85 0 23 2 4 4 -43 4 -47 0 -66 -2 -42 -4z"/>
<path d="M7083 8513 c9 -2 23 -2 30 0 6 3 -1 5 -18 5 -16 0 -22 -2 -12 -5z"/>
<path d="M7375 8491 c33 -16 71 -40 85 -56 14 -15 34 -31 45 -37 11 -6 2 9
-20 32 -37 39 -128 91 -158 90 -7 -1 15 -14 48 -29z"/>
<path d="M6968 8463 c-37 -31 -49 -44 -79 -88 -13 -19 -7 -15 15 10 19 22 52
55 72 73 45 39 39 43 -8 5z"/>
<path d="M4769 8404 c-109 -14 -342 -66 -465 -104 -265 -82 -607 -260 -824
-429 -206 -161 -461 -439 -589 -643 -202 -322 -311 -603 -382 -986 -75 -406
-60 -741 52 -1135 144 -509 496 -1033 891 -1325 277 -206 616 -375 859 -429
l81 -18 43 -66 c24 -37 74 -109 113 -161 39 -53 132 -187 207 -299 151 -225
172 -252 228 -280 108 -56 208 -7 317 152 82 120 317 434 423 566 77 96 84
102 127 108 102 14 340 113 527 218 394 222 672 483 901 845 278 442 413 889
415 1377 1 362 -52 637 -187 970 -121 295 -285 560 -519 834 -44 51 -77 98
-74 105 7 17 63 28 108 21 l34 -6 -25 15 c-14 8 -35 15 -47 16 -43 0 -179 -38
-225 -65 l-48 -27 0 29 c0 37 24 118 54 183 19 41 22 58 15 82 -13 46 -17 43
-12 -9 3 -32 0 -54 -9 -67 -14 -18 -16 -18 -48 -1 -18 9 -74 45 -124 79 -349
240 -793 406 -1199 450 -177 19 -469 19 -618 0z m605 -199 c483 -57 960 -271
1297 -581 430 -398 671 -827 789 -1409 29 -144 33 -178 34 -345 1 -260 -25
-456 -94 -700 -160 -568 -549 -1079 -1052 -1384 -211 -128 -526 -256 -631
-256 -54 0 -55 -1 -80 -42 -35 -61 -184 -263 -291 -397 -50 -62 -129 -170
-176 -240 -105 -156 -113 -159 -163 -63 -20 38 -112 181 -204 318 -92 137
-185 283 -207 324 l-41 75 -74 8 c-205 22 -611 207 -858 391 -282 209 -516
481 -675 782 -202 384 -287 740 -275 1158 16 555 189 1048 514 1459 78 99 250
274 358 365 178 150 479 325 696 406 164 60 428 123 589 139 101 11 428 6 544
-8z"/>
<path d="M4885 7780 c-379 -37 -768 -198 -1026 -422 -71 -63 -245 -252 -300
-328 -103 -143 -176 -317 -223 -536 -42 -192 -44 -225 -51 -619 -7 -370 5
-501 61 -672 19 -59 36 -120 37 -135 1 -14 5 -24 10 -21 6 4 11 -15 10 -44 -1
-7 3 -11 6 -8 4 2 21 -23 36 -56 16 -33 41 -78 56 -101 15 -22 25 -47 22 -55
-3 -8 3 -20 13 -28 11 -8 14 -15 7 -15 -28 0 -96 77 -125 143 -17 37 -34 67
-38 67 -6 0 -19 43 -20 65 0 3 -7 21 -15 41 -8 20 -15 45 -15 56 0 10 -4 17
-8 14 -14 -8 -30 34 -37 97 -4 31 -11 57 -16 57 -5 0 -9 6 -9 13 0 27 -26 67
-42 67 -14 0 -18 9 -18 40 0 33 -3 40 -20 40 -18 0 -20 7 -20 80 0 73 -2 80
-20 80 -13 0 -20 7 -20 20 0 13 -7 20 -20 20 -13 0 -20 -7 -20 -20 0 -15 -7
-20 -29 -20 -27 0 -29 -3 -35 -52 -3 -29 -6 -74 -6 -100 0 -36 -4 -48 -15 -48
-8 0 -15 -8 -16 -17 0 -15 -2 -15 -9 2 -5 11 -11 37 -15 58 -5 34 -25 53 -25
25 0 -49 49 -258 61 -258 5 0 6 -6 3 -14 -3 -8 -1 -23 5 -33 9 -16 11 -14 11
12 1 17 4 24 7 18 7 -19 21 -15 28 8 5 15 10 18 18 10 7 -7 7 -17 0 -34 -13
-29 0 -57 27 -57 18 0 20 -8 21 -62 1 -35 1 -72 0 -83 -2 -17 0 -17 8 -5 8 11
10 5 9 -25 -2 -42 9 -85 21 -85 4 0 8 -10 8 -22 2 -16 0 -19 -6 -9 -5 7 -11 9
-14 4 -4 -6 14 -45 39 -88 35 -59 48 -75 56 -64 8 11 8 10 4 -4 -6 -18 27 -78
42 -76 27 4 40 -8 66 -61 16 -33 33 -60 38 -60 5 0 7 -9 3 -19 -4 -14 21 -48
106 -141 120 -131 204 -204 221 -193 6 3 8 1 4 -5 -11 -18 202 -158 364 -238
106 -52 254 -107 345 -128 39 -9 85 -21 103 -27 43 -14 47 -9 16 24 -24 26
-24 27 -4 27 11 0 20 5 20 10 0 15 38 12 43 -2 3 -10 7 -10 18 -1 11 8 23 8
54 -3 22 -7 41 -14 43 -14 1 0 2 -5 2 -11 0 -6 8 -18 17 -27 16 -16 14 -17
-33 -23 -27 -3 -38 -7 -24 -8 55 -3 70 -13 92 -61 15 -34 27 -46 37 -43 14 4
14 3 2 -5 -12 -9 2 -39 81 -169 53 -87 109 -185 126 -218 56 -112 50 -112 123
9 35 59 99 150 141 202 68 85 94 122 185 267 19 31 29 37 57 37 59 0 193 30
299 66 345 119 692 359 921 637 101 123 235 322 243 359 3 15 9 25 14 23 12
-8 97 178 145 320 78 230 114 454 114 714 0 231 -23 345 -85 427 -13 17 -26
37 -27 43 -2 6 -24 33 -49 61 -25 27 -83 104 -129 172 -46 68 -96 135 -112
150 -34 31 -65 41 -59 18 11 -45 11 -54 0 -30 -6 14 -12 30 -13 35 -1 6 -5 16
-9 22 -6 9 -3 11 8 7 13 -5 14 -2 5 20 -12 32 -39 75 -64 101 -11 12 -5 -4 14
-38 17 -32 30 -61 27 -64 -3 -2 -25 35 -48 83 -76 157 -278 399 -459 550 -64
53 -253 174 -339 218 -116 58 -326 124 -468 147 -142 23 -434 33 -568 19z
m423 -165 c75 -9 175 -25 221 -36 97 -24 213 -66 222 -81 3 -5 9 -9 13 -9 20
3 26 0 21 -9 -3 -5 1 -10 9 -10 9 0 18 -13 22 -35 7 -38 36 -64 90 -83 17 -5
54 -26 82 -46 44 -30 55 -34 77 -26 17 7 24 7 20 0 -3 -6 -2 -10 3 -10 19 0
20 13 4 39 l-16 26 22 -19 c15 -13 20 -26 16 -40 -3 -12 -8 -29 -10 -38 -4
-13 0 -18 15 -18 24 0 41 -50 41 -122 0 -44 -19 -77 -28 -49 -2 7 -12 20 -22
29 -9 9 -24 31 -33 47 -26 52 -65 73 -125 67 -29 -2 -52 -8 -52 -13 0 -11 58
-176 75 -214 10 -21 11 -32 3 -36 -6 -4 -8 -15 -4 -24 9 -24 -4 -67 -19 -62
-6 3 -20 -6 -30 -19 -10 -13 -28 -24 -40 -24 -65 0 -112 -24 -62 -32 12 -2 -5
-4 -38 -4 -35 -1 -61 -6 -63 -13 -2 -6 -12 -11 -23 -11 -12 0 -19 -7 -19 -20
0 -27 -28 -25 -33 3 -2 12 -6 -15 -7 -60 -2 -46 -3 -89 -4 -95 -1 -7 8 -13 19
-13 11 0 21 -8 23 -18 2 -9 7 -17 11 -17 4 0 8 -7 8 -15 0 -36 -63 6 -71 48
-3 12 -7 130 -10 262 -5 256 -23 383 -67 493 -23 55 -39 66 -107 66 -53 0 -56
-10 -36 -130 21 -136 33 -674 14 -674 -6 0 -8 -4 -5 -10 3 -5 2 -10 -2 -10 -5
0 -13 -10 -18 -22 -7 -17 -18 -23 -40 -23 -16 1 -32 -2 -35 -6 -3 -3 -116 -9
-253 -12 l-247 -5 -30 29 c-19 20 -31 44 -35 74 -9 55 -1 714 8 735 10 23 -4
37 -45 45 -36 7 -38 6 -68 -41 -64 -101 -90 -250 -97 -554 -3 -124 -9 -235
-14 -246 -5 -15 -20 -24 -45 -29 -60 -11 -296 -6 -311 6 -31 27 -8 324 39 499
43 161 45 175 24 167 -10 -4 -33 -7 -51 -7 -87 0 -160 -158 -215 -465 -29
-162 -30 -166 -70 -189 -32 -19 -49 -21 -214 -19 -99 2 -181 5 -184 8 -13 12
74 248 124 337 100 178 281 382 434 490 205 144 489 250 770 287 183 24 295
25 468 6z m885 -377 c26 -25 27 -27 7 -23 -48 9 -58 17 -62 45 -5 33 2 31 55
-22z m-33 -256 c16 -58 11 -62 -10 -7 -23 58 -23 58 -10 50 5 -3 14 -22 20
-43z m85 -334 c7 -46 16 -96 19 -113 5 -21 4 -25 -2 -15 -5 8 -17 58 -26 111
-18 108 -19 115 -10 106 4 -3 12 -44 19 -89z m411 -155 c-10 -10 -19 5 -10 18
6 11 8 11 12 0 2 -7 1 -15 -2 -18z m-1945 -143 c42 -56 92 -64 369 -61 135 1
256 5 270 8 52 12 119 54 158 98 l40 45 17 -27 c10 -14 36 -46 58 -70 l40 -43
147 0 c81 0 163 3 181 7 23 4 53 26 91 63 l57 57 43 -44 c85 -87 88 -88 308
-90 l195 -2 6 -98 c13 -195 9 -623 -6 -728 -38 -265 -150 -539 -290 -711 -236
-291 -485 -466 -830 -583 -162 -54 -240 -70 -402 -77 -664 -31 -1284 341
-1569 941 -119 250 -146 501 -119 1095 l7 165 199 1 c199 2 200 2 242 29 23
15 60 47 82 71 l40 45 41 -54 c64 -84 89 -91 267 -83 96 4 159 12 176 21 32
16 111 99 111 116 0 7 11 -5 25 -25 13 -20 34 -49 46 -66z m-1663 -1007 c12
-12 13 -18 4 -21 -6 -2 -12 -12 -12 -23 0 -10 -4 -19 -10 -19 -5 0 -7 -8 -3
-17 3 -10 3 -15 -1 -11 -13 11 -25 79 -13 71 6 -4 8 2 5 15 -7 26 7 28 30 5z
m152 -530 c0 -9 8 -30 19 -47 13 -21 16 -37 11 -51 -5 -11 -9 -14 -9 -7 -1 7
-5 10 -11 7 -9 -5 -11 -1 -10 20 1 3 -6 12 -14 20 -8 9 -13 25 -10 38 3 12 6
27 6 34 2 18 18 5 18 -14z m80 -154 c0 -5 -4 -7 -10 -4 -5 3 -10 2 -10 -4 0
-5 5 -11 12 -13 6 -2 9 -11 6 -18 -3 -11 -8 -9 -17 8 -12 23 -8 42 10 42 5 0
9 -5 9 -11z m213 -303 c10 -8 15 -16 10 -18 -4 -3 -16 3 -25 14 -21 21 -11 24
15 4z m838 -345 c45 -28 57 -40 45 -44 -10 -4 -16 -1 -16 7 0 9 -7 12 -20 9
-14 -4 -20 0 -20 11 0 9 -6 16 -13 16 -8 0 -22 9 -32 20 -27 30 -11 25 56 -19z
m-401 -21 c8 -5 11 -10 5 -10 -5 0 -17 5 -25 10 -8 5 -10 10 -5 10 6 0 17 -5
25 -10z m475 -30 c-3 -5 -12 -10 -18 -10 -7 0 -6 4 3 10 19 12 23 12 15 0z
m102 -206 c-3 -3 -12 -4 -19 -1 -8 3 -5 6 6 6 11 1 17 -2 13 -5z"/>
<path d="M6090 7115 c0 -2 6 -8 13 -14 10 -8 14 -7 14 2 0 8 -6 14 -14 14 -7
0 -13 -1 -13 -2z"/>
<path d="M3879 6993 c-19 -21 -43 -49 -54 -63 l-20 -25 29 25 c28 25 91 100
84 100 -2 0 -20 -17 -39 -37z"/>
<path d="M3809 6121 c-22 -21 -39 -47 -39 -58 0 -25 53 -106 91 -138 26 -21
28 -27 19 -46 -15 -26 -46 -22 -132 20 -50 25 -65 28 -82 19 -96 -51 -31 -167
114 -204 41 -10 45 -14 48 -45 9 -127 38 -204 105 -276 141 -153 366 -195 548
-103 97 50 189 190 212 323 32 188 -76 383 -260 470 -64 30 -75 32 -178 32
-100 0 -116 -3 -170 -28 -33 -15 -67 -34 -75 -42 -14 -13 -23 -7 -80 50 -36
36 -68 65 -73 65 -5 0 -27 -17 -48 -39z m435 -194 c54 -30 78 -67 83 -124 3
-37 -1 -58 -19 -92 -30 -58 -65 -83 -126 -89 -65 -6 -114 11 -151 53 -73 84
-43 208 64 256 53 25 102 23 149 -4z m227 -336 c35 -35 37 -66 6 -112 -18 -26
-31 -35 -58 -37 -31 -3 -41 2 -68 33 -17 20 -31 47 -31 61 0 37 51 84 90 84
22 0 41 -9 61 -29z"/>
<path d="M6261 6095 c-65 -81 -62 -80 -119 -41 -54 36 -159 66 -229 66 -102 0
-231 -58 -306 -139 -187 -199 -157 -514 62 -666 52 -35 187 -75 255 -75 114 1
201 37 281 118 76 77 113 154 127 270 l12 92 31 0 c66 1 195 91 195 138 0 22
-53 72 -77 72 -9 0 -43 -18 -76 -40 -66 -44 -95 -48 -108 -12 -7 18 -2 30 24
60 54 60 67 84 67 124 0 30 -6 42 -33 62 -19 15 -40 26 -48 26 -8 0 -34 -25
-58 -55z m-351 -177 c55 -38 75 -73 74 -127 -2 -53 -20 -95 -56 -128 -71 -66
-201 -55 -248 22 -27 44 -28 138 0 182 42 70 163 96 230 51z m206 -332 c42
-42 44 -75 7 -116 -39 -44 -86 -44 -125 -1 -32 35 -35 59 -13 101 31 60 81 66
131 16z"/>
<path d="M5053 5250 c-387 -6 -375 -3 -421 -91 -21 -39 -23 -54 -19 -130 5
-99 36 -174 111 -269 108 -138 308 -210 461 -165 153 44 248 128 325 287 59
119 68 166 46 240 -13 46 -64 117 -85 118 -3 0 -22 4 -41 8 -19 4 -189 5 -377
2z m141 -275 c73 -15 156 -57 156 -79 0 -23 -84 -98 -140 -125 -77 -36 -173
-37 -250 0 -61 29 -140 102 -140 129 0 11 16 25 43 38 107 50 212 62 331 37z"/>
<path d="M3951 5126 c-53 -18 -97 -58 -112 -103 -31 -95 52 -162 206 -166 62
-2 68 0 87 26 11 15 23 27 27 27 4 0 29 20 55 45 41 40 45 48 35 66 -10 20 -9
21 15 17 l25 -5 -19 27 c-27 38 -47 53 -61 44 -7 -4 -9 -3 -6 3 11 17 -22 25
-118 29 -61 3 -104 -1 -134 -10z"/>
<path d="M6000 5129 c-57 -11 -90 -35 -113 -83 -24 -47 -16 -79 31 -127 44
-43 92 -59 185 -59 52 0 66 3 61 13 -6 9 -5 9 7 0 9 -8 20 -9 29 -3 13 8 13
10 1 10 -8 0 -11 3 -8 6 4 4 13 1 22 -6 12 -10 16 -9 21 3 3 9 12 13 20 10 9
-3 14 2 14 13 0 15 2 16 9 6 6 -11 13 -7 30 16 69 97 10 177 -146 201 -81 12
-100 12 -163 0z m-85 -127 c-11 -11 -25 15 -19 33 7 17 8 16 16 -5 5 -13 6
-25 3 -28z m45 -92 c0 -5 -2 -10 -4 -10 -3 0 -8 5 -11 10 -3 6 -1 10 4 10 6 0
11 -4 11 -10z"/>
<path d="M4277 4971 c-4 -17 -3 -21 5 -13 5 5 8 16 6 23 -3 8 -7 3 -11 -10z"/>
<path d="M3185 6880 c-17 -33 -19 -44 -6 -36 10 6 33 66 26 66 -3 0 -11 -13
-20 -30z"/>
<path d="M3136 6783 c-6 -14 -5 -15 5 -6 7 7 10 15 7 18 -3 3 -9 -2 -12 -12z"/>
<path d="M3106 6725 c-9 -26 -7 -32 5 -12 6 10 9 21 6 23 -2 3 -7 -2 -11 -11z"/>
<path d="M3046 6585 c-9 -26 -7 -32 5 -12 6 10 9 21 6 23 -2 3 -7 -2 -11 -11z"/>
<path d="M3026 6523 c-6 -14 -5 -15 5 -6 7 7 10 15 7 18 -3 3 -9 -2 -12 -12z"/>
<path d="M2931 6154 c0 -11 3 -14 6 -6 3 7 2 16 -1 19 -3 4 -6 -2 -5 -13z"/>
<path d="M2912 5820 c0 -14 2 -19 5 -12 2 6 2 18 0 25 -3 6 -5 1 -5 -13z"/>
<path d="M3010 5136 c0 -2 7 -7 16 -10 8 -3 12 -2 9 4 -6 10 -25 14 -25 6z"/>
<path d="M3020 5095 c0 -5 5 -17 10 -25 5 -8 10 -10 10 -5 0 6 -5 17 -10 25
-5 8 -10 11 -10 5z"/>
<path d="M3092 5060 c0 -14 2 -19 5 -12 2 6 2 18 0 25 -3 6 -5 1 -5 -13z"/>
<path d="M3070 5019 c0 -5 -4 -8 -10 -4 -5 3 -3 -16 5 -42 8 -26 19 -49 25
-51 5 -2 10 -11 10 -20 1 -9 7 -28 15 -42 14 -25 14 -25 15 -2 0 12 -4 22 -10
22 -5 0 -10 9 -10 20 0 23 -20 70 -31 70 -4 0 -6 14 -4 30 2 17 2 30 0 30 -3
0 -5 -5 -5 -11z"/>
<path d="M3302 4555 c11 -20 22 -34 25 -32 5 6 -30 67 -39 67 -4 0 2 -16 14
-35z"/>
<path d="M3340 4510 c1 -16 27 -56 34 -49 2 2 -5 18 -15 34 -11 17 -19 23 -19
15z"/>
<path d="M6978 8368 c-28 -31 -44 -82 -35 -115 3 -11 5 -5 6 13 0 18 16 54 35
83 38 57 35 65 -6 19z"/>
<path d="M7086 8379 c60 -67 68 -127 24 -169 l-29 -27 52 -58 c62 -70 123
-116 143 -108 8 3 21 18 30 34 13 26 13 29 -1 29 -11 0 -14 7 -10 25 3 14 7
36 10 49 8 39 -5 84 -26 89 -10 3 -19 12 -19 21 0 9 -4 16 -10 16 -5 0 -27 16
-49 35 -21 19 -42 35 -47 35 -5 0 -27 12 -49 27 -39 25 -39 26 -19 2z m209
-319 c3 -5 1 -10 -4 -10 -6 0 -11 5 -11 10 0 6 2 10 4 10 3 0 8 -4 11 -10z"/>
<path d="M6823 8175 c0 -22 2 -30 4 -17 2 12 2 30 0 40 -3 9 -5 -1 -4 -23z"/>
<path d="M6984 8155 c18 -53 76 -130 125 -167 48 -36 148 -84 157 -76 1 2 -27
19 -64 38 -71 37 -147 106 -195 180 -16 25 -27 36 -23 25z"/>
<path d="M7440 8130 c0 -33 -3 -35 -31 -20 -13 7 -19 7 -19 0 0 -5 -7 -10 -16
-10 -8 0 -13 4 -10 9 4 5 -1 8 -9 7 -30 -4 -25 -14 12 -26 21 -7 50 -21 66
-32 15 -11 27 -15 27 -8 0 6 5 8 11 4 8 -5 8 -8 0 -14 -7 -3 -9 -14 -5 -23 3
-9 -1 -26 -10 -39 -24 -34 -19 -45 7 -15 12 15 30 27 39 27 17 0 61 39 65 56
1 5 3 15 5 22 2 8 -4 17 -12 22 -35 19 -76 33 -87 31 -7 -1 -13 7 -13 19 0 11
-4 20 -10 20 -5 0 -10 -13 -10 -30z m40 -49 c0 -12 -28 -22 -34 -12 -3 5 -3
11 1 15 9 9 33 7 33 -3z"/>
<path d="M6830 8095 c0 -11 9 -39 19 -61 30 -66 34 -98 17 -139 -20 -48 -20
-61 0 -40 9 9 23 14 31 10 12 -4 14 0 10 15 -3 11 1 27 9 34 8 8 14 30 14 50
0 30 -3 35 -27 38 -20 2 -27 8 -25 21 2 10 -3 17 -13 17 -9 0 -14 4 -11 9 3 5
-1 22 -9 37 -12 23 -15 25 -15 9z"/>
<path d="M7335 7910 l-60 -7 55 -1 c30 -1 62 3 70 8 8 5 11 9 5 8 -5 -1 -37
-4 -70 -8z"/>
<path d="M6940 7849 c0 -5 -10 -9 -22 -9 -12 0 -19 -2 -16 -5 2 -3 31 -1 64 4
32 5 48 9 34 11 -14 1 -33 3 -42 5 -10 2 -18 -1 -18 -6z"/>
<path d="M7030 7836 c0 -2 7 -7 16 -10 8 -3 12 -2 9 4 -6 10 -25 14 -25 6z"/>
<path d="M4690 1954 c-19 -2 -143 -8 -275 -14 -132 -6 -269 -15 -305 -20 -36
-5 -148 -16 -250 -25 -102 -9 -228 -23 -280 -31 -117 -18 -254 -60 -276 -85
-16 -18 -16 -21 6 -44 48 -52 194 -84 537 -120 175 -18 216 -23 263 -30 85
-13 596 -36 923 -42 657 -12 1475 52 1710 134 26 9 47 20 47 25 0 4 7 5 15 2
8 -4 15 -1 15 7 0 7 3 10 6 6 10 -10 64 22 64 38 0 49 -195 111 -410 130 -36
3 -130 12 -210 20 -382 38 -537 45 -1035 49 -280 2 -526 3 -545 0z m269 -18
c-12 -10 -59 -15 -59 -6 0 5 14 10 32 10 17 0 29 -2 27 -4z"/>
</g>
</svg>
